Coordinates
version=1
nRows=15
nColumns=34
inDegrees=yes

Units are S.I. units (second, meters, Newtons, ...)
If the header above contains a line with 'inDegrees', this indicates whether rotational values are in degrees (yes) or radians (no).

endheader
time	pelvis_tilt	pelvis_list	pelvis_rotation	pelvis_tx	pelvis_ty	pelvis_tz	hip_flexion_r	hip_adduction_r	hip_rotation_r	knee_angle_r	ankle_angle_r	subtalar_angle_r	mtp_angle_r	hip_flexion_l	hip_adduction_l	hip_rotation_l	knee_angle_l	ankle_angle_l	subtalar_angle_l	mtp_angle_l	lumbar_extension	lumbar_bending	lumbar_rotation	arm_flex_r	arm_add_r	arm_rot_r	elbow_flex_r	pro_sup_r	arm_flex_l	arm_add_l	arm_rot_l	elbow_flex_l	pro_sup_l
      2.27000000	     -1.20595660	      1.71655351	     -1.93010975	      0.72083260	      0.92114451	      0.24631409	     26.15421099	     -0.61789829	     -4.07659651	    -28.01146638	     -0.46376720	     -0.41975008	     66.51660742	     -4.72771857	      6.45479391	     -0.50612792	    -10.42881619	     12.50877102	     -0.12090352	      6.47537317	     -5.30257749	     -1.04069733	     -2.77320403	     -6.74882673	    -18.44814780	      5.97362403	     25.47991139	     90.00000000	      0.99073232	    -20.38702769	      9.49286306	     44.42521842	     90.00000000
      2.28000000	     -0.87146810	      1.72969492	     -1.55075905	      0.73507153	      0.92065108	      0.24690459	     25.65053374	     -0.77176937	     -4.86386540	    -23.79010113	     -0.58836275	      0.31022641	     66.08966737	     -6.54273456	      6.40935717	     -0.09549467	     -9.56004499	     12.43463314	     -0.06019164	      6.50187269	     -5.67318741	     -1.05403121	     -3.26716366	     -7.01139369	    -18.29264122	      5.59363023	     25.03653781	     90.00000000	      1.34941850	    -20.66372826	      8.84107717	     45.53607959	     90.00000000
      2.29000000	     -0.44619941	      1.76657266	     -1.26357272	      0.74974264	      0.92006905	      0.24778753	     25.00369260	     -0.88922464	     -5.72394033	    -19.73002534	     -0.41615069	      1.81205597	     65.37886817	     -8.50010419	      6.35448755	      0.07354177	     -8.63332851	     12.30262134	      0.10766639	      6.62922899	     -6.09213327	     -1.11731749	     -3.70116625	     -7.25866582	    -18.12506852	      5.29162715	     24.56980131	     90.00000000	      1.58328638	    -20.89865300	      8.05429151	     46.65739687	     90.00000000
      2.30000000	     -0.61661926	      1.87414818	     -0.99387794	      0.76412904	      0.91848079	      0.24877455	     24.99286845	     -0.93823684	     -6.14074070	    -15.82297574	     -0.63816527	      2.74239689	     65.07428745	     -9.62126189	      6.34117635	      0.35865749	     -8.06635531	     12.25140787	      0.32591519	      6.66880160	     -5.82708510	     -1.25785963	     -3.97980190	     -7.65907848	    -18.00005218	      5.13420720	     24.29249817	     90.00000000	      1.88148934	    -21.21841923	      7.90113166	     47.48524576	     90.00000000
      2.31000000	      0.24797967	      1.78330750	     -0.62246010	      0.77928118	      0.91831534	      0.24968736	     23.86122385	     -0.98645761	     -7.81692981	    -12.34755772	     -0.38311847	      5.84661605	     64.50249724	    -11.98509983	      6.06866992	      0.56010871	     -7.31734225	     12.02637068	      0.61585873	      6.89969607	     -6.74821656	     -1.17539917	     -4.53461931	     -7.65887349	    -17.79049761	      4.79576949	     23.54232601	     90.00000000	      1.90913783	    -21.45050878	      6.99025261	     48.84015829	     90.00000000
      2.32000000	      0.46704830	      1.76202988	     -0.25627008	      0.79424086	      0.91707162	      0.25052919	     23.50792805	     -1.01618960	     -9.20258105	     -9.34761350	     -0.10797577	      9.00153828	     65.03861910	    -13.42884430	      5.83163975	      0.81993432	     -6.97337708	     11.96689138	      1.04995430	      7.41056255	     -6.89586201	     -1.12521986	     -5.01901132	     -7.86484946	    -17.70354506	      4.85934146	     23.14289386	     90.00000000	      1.92179495	    -21.58389495	      6.32797549	     49.85676617	     90.00000000
      2.33000000	      0.82519475	      1.63168348	     -0.01562461	      0.80926094	      0.91600244	      0.25180596	     23.04156970	     -0.81247561	    -10.30510455	     -6.82166714	     -0.30191426	     10.89524022	     65.48159813	    -14.92011972	      5.46069552	      0.83988399	     -6.78604138	     11.83894539	      1.74093878	      7.85567130	     -7.19498757	     -1.00369034	     -5.35538517	     -7.98249465	    -17.60140268	      4.74702084	     22.70072152	     90.00000000	      1.92456911	    -21.70777612	      5.69494170	     50.73614318	     90.00000000
      2.34000000	      1.02902856	      1.44523607	      0.22623232	      0.82447459	      0.91458375	      0.25333826	     22.90920824	     -0.51398647	    -11.23606428	     -5.11730764	     -0.49642217	     12.27004431	     65.79908504	    -16.12765483	      4.99586428	      0.91124697	     -6.84916991	     11.71640693	      2.32874978	      8.37321349	     -7.25694209	     -0.83067819	     -5.58254768	     -8.17312465	    -17.42823048	      4.53934605	     22.16301754	     90.00000000	      1.94081470	    -21.86278067	      5.18779101	     51.51210750	     90.00000000
      2.35000000	      1.16507130	      1.28820207	      0.39556542	      0.83976531	      0.91303016	      0.25490042	     22.93789390	     -0.23958621	    -12.02563254	     -4.07971203	     -0.61567459	     13.56425888	     66.47807839	    -17.12300952	      4.57994465	      0.87887328	     -7.16559361	     11.61248939	      2.98358004	      8.96422691	     -7.29044290	     -0.68375692	     -5.92022445	     -8.21748115	    -17.31477844	      4.58036018	     21.71101209	     90.00000000	      1.65754015	    -21.91049120	      4.28947408	     52.39398679	     90.00000000
      2.36000000	      1.09218167	      1.20264776	      0.46251248	      0.85507131	      0.91116306	      0.25651752	     23.24377550	     -0.00875784	    -12.17838464	     -3.69104155	     -0.79807444	     13.83490551	     66.55268796	    -17.80638222	      4.29139674	      0.97331577	     -7.64277977	     11.34950966	      3.23674358	      9.08041099	     -6.99779380	     -0.59913391	     -5.84865244	     -8.58740986	    -17.24189321	      4.47579718	     21.55660213	     90.00000000	      1.68150255	    -21.88684072	      4.03750719	     52.72449442	     90.00000000
      2.37000000	      1.12928077	      1.29874923	      0.66450872	      0.87061596	      0.90938588	      0.25781002	     23.29249941	     -0.02695050	    -11.96335182	     -3.64204103	     -0.74758803	     14.16869080	     66.66455210	    -18.52236484	      4.16438684	      1.19275289	     -8.29412505	     11.05173261	      3.55685072	      9.20197546	     -6.85872674	     -0.69284063	     -6.07908640	     -8.83002549	    -17.13413564	      4.35774261	     21.38434752	     90.00000000	      1.52855834	    -21.87847983	      3.52925281	     53.03076166	     90.00000000
      2.38000000	      1.40236832	      1.18722614	      0.82364966	      0.88665613	      0.90796317	      0.25922618	     23.37789704	      0.06739246	    -12.16036763	     -4.79247978	     -0.43295799	     15.12731100	     67.17201402	    -19.37591311	      3.79035188	      0.92918262	     -9.16578528	     10.45195902	      4.35083751	      9.76031081	     -6.89786997	     -0.56134662	     -6.48341452	     -8.59557743	    -17.00477995	      4.20979228	     20.39843335	     90.00000000	      0.88914129	    -21.62631844	      1.73521255	     53.70819482	     90.00000000
      2.39000000	      1.47361124	      1.17809877	      1.03251587	      0.90276339	      0.90621867	      0.26037413	     23.45561392	      0.07364676	    -11.81758331	     -5.97318622	     -0.49114318	     15.04209502	     67.21489364	    -19.89781141	      3.56257587	      1.06678033	    -10.26060802	     10.25187738	      4.39308818	      9.79048281	     -6.68938038	     -0.50279949	     -6.54861821	     -9.13012863	    -17.01430664	      4.19944890	     20.76061381	     90.00000000	      0.64333981	    -21.57070683	      1.61564126	     53.83625566	     90.00000000
      2.40000000	      1.36384069	      1.10114449	      1.27260739	      0.91925225	      0.90418621	      0.26147382	     23.88371359	      0.06836384	    -11.89963510	     -7.91707201	     -0.17475966	     14.87203923	     68.31522704	    -20.07177003	      3.19112088	      0.82369344	    -11.61545210	      9.46767732	      5.64256666	     11.38824130	     -6.23918884	     -0.39415913	     -7.01604727	     -8.92150467	    -16.99283474	      4.85044815	     19.67239083	     90.00000000	     -0.26476972	    -20.96132191	     -0.99306384	     54.44581870	     90.00000000
      2.41000000	      1.43740433	      1.00167246	      1.50698793	      0.93595626	      0.90248255	      0.26244196	     23.96844923	      0.11480644	    -12.06902094	     -9.86259515	     -1.13192487	     13.94652176	     68.45085717	    -20.37473243	      2.82419913	      0.74022653	    -13.04416296	      8.43169830	      5.97426255	     11.64585462	     -5.95125618	     -0.19629131	     -7.06344991	     -9.40147099	    -17.06143982	      4.87027832	     19.86629333	     90.00000000	     -0.55135717	    -20.60542397	     -1.61541517	     54.13534314	     90.00000000
